<!-- Generator: Adobe Illustrator 19.2.0, SVG Export Plug-In  -->
<svg version="1.1"
	 xmlns="http://www.w3.org/2000/svg" xmlns:xlink="http://www.w3.org/1999/xlink" xmlns:a="http://ns.adobe.com/AdobeSVGViewerExtensions/3.0/"
	 x="0px" y="0px" width="351.049px" height="280.667px" viewBox="0 0 351.049 280.667"
	 style="enable-background:new 0 0 351.049 280.667;" xml:space="preserve">
<style type="text/css">
	.st0{fill:#8FD3C9;}
	.st1{fill:#FFFFFF;}
</style>
<defs>
</defs>
<ellipse class="st0" cx="185.265" cy="140.334" rx="165.784" ry="140.334"/>
<g>
	<g>
		<path class="st0" d="M49.293,203.646c9.642,12.835,22.987,22.105,35.469,31.967c6.731,5.318,13.462,10.636,20.193,15.954
			c5.599,4.424,11.129,9.253,17.719,12.151c13.85,6.091,31.292,4.505,46.092,4.587c16.885,0.094,33.772-0.839,50.32-4.377
			c6.29-1.345,3.628-10.987-2.658-9.643c-15.056,3.22-30.397,4.047-45.76,4.027c-7.602-0.01-15.204-0.207-22.803-0.426
			c-7.269-0.21-14.915-0.311-21.624-3.48c-6.387-3.017-11.825-8.023-17.321-12.365c-6.213-4.909-12.426-9.818-18.64-14.727
			c-11.161-8.818-23.722-17.228-32.352-28.716C54.108,193.515,45.422,198.494,49.293,203.646L49.293,203.646z"/>
	</g>
</g>
<g>
	<g>
		<path class="st1" d="M133.998,174.952c5.805-6.983,16.59-8.601,20.754-17.189c2.758-5.687,0.901-14.114-5.996-15.599
			c-8.549-1.84-13.322,6.944-15.003,13.797c-1.858,7.577-4.845,20.973,0.813,27.635c4.828,5.684,13.44,4.128,18.502-0.299
			c7.467-6.531,11.992-17.647,16.238-26.39c4.807-9.897,8.947-20.13,12.356-30.591c1.765-5.414,3.332-10.893,4.7-16.42
			c1.08-4.367,3.119-9.695,2.656-14.244c-0.24-2.356-1.457-5.075-4.07-5.463c-3.053-0.453-5.684,3.004-7.209,5.154
			c-4.963,6.994-5.309,16.202-5.748,24.449c-0.658,12.354-1.967,24.642-4.141,36.825c-1.182,6.621-5.437,18.031,2.979,21.776
			c8.026,3.572,14.277-3.744,17.55-10.077c5.664-10.958,10.888-22.167,16.324-33.239c4.841-9.861,10.489-19.919,12.421-30.863
			c0.91-5.158,2.562-19.908-5.807-20.139c-10.634-0.294-9.396,18.33-9.993,24.725c-1.3,13.924-2.599,27.847-3.899,41.771
			c-0.559,5.991-3.297,20.947,7.582,19.421c4.234-0.594,7.466-4.131,9.798-7.433c3.657-5.178,6.704-10.894,9.579-16.532
			c1.459-2.861-2.853-5.394-4.317-2.524c-3.098,6.073-6.321,13.061-10.868,18.202c-0.894,1.01-2.869,3.274-4.359,3.235
			c-3.711-0.097-3.3-2.948-3.253-5.164c0.093-4.377,0.803-8.823,1.21-13.183c1.485-15.912,2.891-31.834,4.456-47.738
			c0.201-2.04,1.047-12.378,4.975-7.468c1.674,2.092,0.484,9.086,0.076,11.498c-1.35,7.969-4.92,15.373-8.434,22.574
			c-6.761,13.855-13.086,28.121-20.484,41.643c-1.623,2.966-4.224,7.298-8.196,7.13c-6.165-0.261-4.329-6.809-3.565-10.721
			c1.37-7.015,2.514-14.066,3.408-21.158c0.945-7.496,1.559-15.018,1.961-22.562c0.315-5.931,0.503-12.158,2.766-17.737
			c0.681-1.679,1.584-3.341,2.739-4.744c1.128-1.37,1.639-3,1.588-0.546c-0.073,3.54-1.491,7.499-2.326,10.93
			c-1.701,6.989-3.723,13.9-6.056,20.704c-4.792,13.976-10.923,27.476-18.277,40.289c-2.988,5.206-10.12,18.253-18.032,12.612
			c-3.732-2.661-2.74-9.44-2.461-13.367c0.288-4.046,0.903-8.136,2-12.05c1.025-3.655,5.554-12.736,10.671-7.798
			c3.514,3.392,0.409,8.735-2.36,11.239c-5.201,4.702-12.186,6.567-16.779,12.091C128.419,173.874,131.938,177.43,133.998,174.952
			L133.998,174.952z"/>
	</g>
</g>
<g>
	<g>
		<path class="st1" d="M228.23,123.505c-4.473,5.014-6.955,11.04-8.16,17.616c-1.163,6.349-2.087,13.873,1.656,19.565
			c7.542,11.469,21.691,2.453,26.62-6.47c5.175-9.368,10.812-27.795,0.495-35.681c-4.185-3.199-9.49-2.427-12.247,2.163
			c-3.225,5.368-2.921,12.818,0.179,18.153c3.261,5.613,10.141,9.865,16.772,9.146c6.96-0.755,10.242-9.462,13.487-14.607
			c1.722-2.729-2.603-5.241-4.317-2.524c-2.28,3.614-5.701,12.025-10.505,12.203c-5.767,0.214-10.917-4.727-12.409-9.947
			c-0.736-2.577-0.863-7.578,1.11-9.901c3.459-4.07,7.271,1.197,8.102,4.578c1.281,5.215-0.339,11.032-1.843,16.074
			c-1.247,4.177-2.949,8.415-5.793,11.782c-3.521,4.168-11.195,8.358-15.335,2.508c-3.18-4.494-1.999-11.41-1.003-16.474
			c1.065-5.41,3.013-10.487,6.724-14.647C233.902,124.646,230.377,121.098,228.23,123.505L228.23,123.505z"/>
	</g>
</g>
<g>
	<g>
		<path class="st1" d="M289.95,64.615c-3.709,20.268-6.36,40.701-7.939,61.245c-0.247,3.209,4.755,3.193,5,0
			c1.545-20.102,4.131-40.084,7.76-59.916C295.347,62.799,290.529,61.45,289.95,64.615L289.95,64.615z"/>
	</g>
</g>
<g>
	<g>
		<path class="st1" d="M280.913,150.115c3.217,0,3.223-5,0-5C277.696,145.115,277.69,150.115,280.913,150.115L280.913,150.115z"/>
	</g>
</g>
<g>
	<g>
		<path class="st1" d="M95.045,149.715c-3.524,17.546-6.136,35.246-7.847,53.06c-0.308,3.201,4.694,3.18,5,0
			c1.669-17.372,4.232-34.621,7.669-51.731C100.497,147.902,95.679,146.558,95.045,149.715L95.045,149.715z"/>
	</g>
</g>
<g>
	<g>
		<path class="st1" d="M99.055,153.545c7.118-7.977,12.253-17.654,13.869-28.301c0.75-4.939,1.086-20.282-8.446-15.72
			c-3.653,1.748-5.408,6.609-6.823,10.094c-2.091,5.148-3.329,10.561-4.132,16.048c-1.634,11.162-1.576,22.48-2.822,33.682
			c-0.355,3.193,4.648,3.168,5,0c1.675-15.055,0.698-30.778,5.619-45.299c0.519-1.532,3.85-12.118,6.812-8.684
			c0.707,0.819,0.303,4.576,0.251,5.546c-0.139,2.546-0.566,5.056-1.183,7.527c-2.022,8.09-6.149,15.372-11.68,21.571
			C93.383,152.403,96.907,155.952,99.055,153.545L99.055,153.545z"/>
	</g>
</g>
<g>
	<g>
		<path class="st1" d="M96.132,179.619c2.372-6.051,12.32-23.484,20.815-16.261c7.132,6.063,2.491,16.001,2.447,23.715
			c-0.026,4.592,2.796,8.172,7.648,7.686c6.849-0.686,8.574-7.533,12.118-12.238c1.936-2.571-2.403-5.065-4.317-2.524
			c-1.677,2.226-4.533,10.266-8.006,9.787c-4.454-0.614-1.379-10.059-1.117-12.872c0.608-6.542-0.598-13.782-6.266-17.9
			c-12.373-8.99-24.409,9.749-28.143,19.277C90.136,181.287,94.969,182.586,96.132,179.619L96.132,179.619z"/>
	</g>
</g>
<g>
	<g>
		<path class="st0" d="M27.554,193.403c-6.208,13.212-14.936,24.658-26.046,34.129c-3.393,2.892-0.563,8.535,3.536,8.536
			c23.763,0.002,48.408-0.545,69.663-12.495c5.61-3.154,0.575-11.796-5.047-8.635c-19.644,11.045-42.692,11.132-64.616,11.13
			c1.179,2.845,2.357,5.69,3.536,8.536c11.68-9.957,21.082-22.261,27.609-36.153C38.91,192.659,30.292,187.576,27.554,193.403
			L27.554,193.403z"/>
	</g>
</g>
<g>
	<g>
		<path class="st0" d="M17.576,233.13c11.115-5.703,20.236-14.32,26.717-24.985c1.813-2.984-0.47-7.954-4.317-7.524
			c-3.673,0.41-6.707,1.273-9.794,3.365c1.682,2.878,3.365,5.756,5.047,8.635c3.784-2.842,6.724-6.078,8.607-10.459
			c2.027-4.716-3.802-10.787-7.853-6.059c-3.553,4.147-6.657,8.546-9.246,13.358c-1.689,3.14,0.365,7.771,4.317,7.524
			c5.176-0.324,10.351-0.647,15.527-0.971c-1.179-2.845-2.357-5.69-3.536-8.536c-5.023,5.124-10.554,9.355-16.809,12.87
			c-4.874,2.739-1.618,10.872,3.853,9.139c8.449-2.677,16.898-5.355,25.347-8.032c-1.284-3.046-2.569-6.092-3.853-9.139
			c-3.991,2.707-7.898,5.303-12.584,6.622c1.284,3.046,2.569,6.092,3.853,9.139c9.399-4.233,18.504-9.02,27.32-14.362
			c5.497-3.331,0.477-11.982-5.047-8.635c-8.816,5.342-17.921,10.128-27.32,14.362c-5.234,2.357-1.492,10.642,3.853,9.139
			c5.523-1.554,10.258-4.432,14.972-7.63c4.458-3.024,1.844-10.944-3.853-9.139c-8.449,2.677-16.898,5.355-25.347,8.032
			c1.284,3.046,2.569,6.092,3.853,9.139c6.956-3.909,13.247-8.735,18.833-14.434c2.876-2.935,0.923-8.814-3.536-8.536
			c-5.176,0.324-10.351,0.647-15.527,0.971c1.439,2.508,2.878,5.016,4.317,7.524c2.186-4.063,4.678-7.827,7.682-11.334
			c-2.618-2.02-5.235-4.039-7.853-6.059c-1.171,2.725-2.615,5.066-5.019,6.872c-5.021,3.771-0.38,12.313,5.047,8.635
			c1.512-1.025,2.887-1.792,4.747-2c-1.439-2.508-2.878-5.016-4.317-7.524c-5.638,9.278-13.48,16.447-23.13,21.398
			C6.801,227.435,11.855,236.066,17.576,233.13L17.576,233.13z"/>
	</g>
</g>
<g>
	<g>
		<path class="st0" d="M9.942,232.101c11.1-5.604,17.553-16.247,22.241-27.347c2.484-5.881,4.744-11.859,7.072-17.802
			c2.58-6.588,4.877-13.128,4.518-20.302c-0.321-6.405-10.323-6.443-10,0c0.544,10.859-5.907,22.438-9.937,32.312
			c-4.014,9.834-9.094,19.533-18.941,24.504C-0.851,226.368,4.205,234.998,9.942,232.101L9.942,232.101z"/>
	</g>
</g>
</svg>